# xmcd
#
# Track frame offsets: 
#        150
#        12391
#        29009
#        40156
#        54498
#        68649
#        78607
#        93091
#        107933
#        127801
#        143384
#        158128
#
# Disc length: 2347 seconds
#
# Revision: 1
# Processed by: cddbd v1.5.1PL0 Copyright (c) Steve Scherf et al.
# Submitted via: ExactAudioCopy v0.90b4
#
DISCID=9309290c
DTITLE=Randy Travis - 36 All-Time Greatest Hits - Disc 1
DYEAR=1900
DGENRE=Country
TTITLE0=Better Class Of Losers
TTITLE1=I Told You So
TTITLE2=Too Gone Too Long
TTITLE3=Whisper My Name
TTITLE4=On The Other Hand
TTITLE5=Heroes And Friends
TTITLE6=Is It Still Over
TTITLE7=Written In Stone
TTITLE8=Oscar The Angel
TTITLE9=He Walked On Water
TTITLE10=Somewhere In My Broken Heart
TTITLE11=It's Just A Matter Of Time
EXTD=
EXTT0=
EXTT1=
EXTT2=
EXTT3=
EXTT4=
EXTT5=
EXTT6=
EXTT7=
EXTT8=
EXTT9=
EXTT10=
EXTT11=
PLAYORDER=
